<?xml version="1.0" standalone="no"?>
<!DOCTYPE svg PUBLIC "-//W3C//DTD SVG 20010904//EN"
 "http://www.w3.org/TR/2001/REC-SVG-20010904/DTD/svg10.dtd">
<svg version="1.0" xmlns="http://www.w3.org/2000/svg"
 width="764.000000pt" height="764.000000pt" viewBox="0 0 764.000000 764.000000"
 preserveAspectRatio="xMidYMid meet">
<metadata>
Created by potrace 1.11, written by Peter Selinger 2001-2013
</metadata>
<g transform="translate(0.000000,764.000000) scale(0.100000,-0.100000)"
fill="#000000" stroke="none">
<path d="M5843 7030 c-453 -64 -813 -405 -897 -850 -22 -113 -20 -292 3 -405
87 -422 408 -735 846 -826 95 -20 304 -15 412 9 196 44 357 130 500 266 341
324 427 808 218 1231 -146 296 -409 495 -745 565 -75 15 -261 21 -337 10z"/>
<path d="M2815 5080 c-339 -25 -728 -164 -1005 -359 -463 -324 -761 -789 -865
-1346 -25 -134 -28 -173 -28 -360 0 -187 3 -226 28 -360 161 -870 801 -1510
1680 -1681 126 -24 162 -27 360 -27 197 0 235 3 365 27 877 164 1514 796 1686
1674 24 124 27 159 27 362 0 203 -3 239 -27 365 -61 317 -168 576 -343 830
-345 501 -934 832 -1553 876 -140 9 -182 9 -325 -1z"/>
</g>
</svg>
